<svg width="71" height="23" xmlns="http://www.w3.org/2000/svg"><path d="M4.527 0 0 13.143h7.546L4.527 23 16.601 8.214H9.055L13.582 0H4.527zM25.1 17.633h-3.375l2.884-13.295h9.594l-.647 2.99h-6.22L26.904 9.4h6.062l-.647 2.99h-6.082l-1.138 5.242zm16.314.24c-4.022 0-6.004-1.954-6.004-4.745 0-.219.06-.677.099-.877l1.726-7.913h3.433l-1.706 7.834c-.02.1-.06.319-.06.558.02 1.096.844 2.153 2.512 2.153 1.805 0 2.727-1.157 3.06-2.711l1.707-7.834h3.414l-1.707 7.893c-.706 3.23-2.433 5.642-6.474 5.642zm17.432-.24h-8.632l2.884-13.295h3.374l-2.217 10.305h5.239l-.648 2.99zm11.508 0H61.72l2.884-13.295h3.375l-2.217 10.305H71l-.647 2.99z" fill="#00A650" fill-rule="evenodd"/></svg>